<svg width="185" height="181" viewBox="0 0 185 181" fill="none" xmlns="http://www.w3.org/2000/svg">
<path fill-rule="evenodd" clip-rule="evenodd" d="M92.5 -0.00878906L100.563 0.335621L108.564 1.36624L116.443 3.07522L124.14 5.44955L131.596 8.47117L138.754 12.1171L145.561 16.3595L151.964 21.1662L157.914 26.5006L163.366 32.322L168.279 38.5862L172.615 45.2455L176.341 52.2492L179.43 59.5441L181.857 67.0745L183.603 74.7832L184.657 82.6115L185.009 90.4998L184.657 98.3882L183.603 106.216L181.857 113.925L179.43 121.456L176.341 128.75L172.615 135.754L168.279 142.413L163.366 148.678L157.914 154.499L151.964 159.833L145.561 164.64L138.754 168.883L131.596 172.528L124.14 175.55L116.443 177.924L108.564 179.633L100.563 180.664L92.5 181.008L84.4374 180.664L76.436 179.633L68.557 177.924L60.8601 175.55L53.4041 172.528L46.2456 168.883L39.4391 164.64L33.0365 159.833L27.0864 154.499L21.6342 148.678L16.7212 142.413L12.385 135.754L8.65857 128.75L5.57018 121.456L3.14337 113.925L1.39663 106.216L0.343232 98.3882L-0.00878906 90.4998L0.343232 82.6115L1.39663 74.7832L3.14337 67.0745L5.57018 59.5441L8.65857 52.2492L12.385 45.2455L16.7212 38.5862L21.6342 32.322L27.0864 26.5006L33.0365 21.1662L39.4391 16.3595L46.2456 12.1171L53.4041 8.47117L60.8601 5.44955L68.557 3.07522L76.436 1.36624L84.4374 0.335621L92.5 -0.00878906ZM86.0513 18.3839L79.6516 19.2082L73.3497 20.5751L67.1935 22.4742L61.23 24.891L55.5044 27.8071L50.0604 31.2003L44.9394 35.0448L40.1804 39.3114L35.8195 43.9676L31.89 48.9778L28.4218 54.3041L25.4412 59.9059L22.9711 65.7405L21.03 71.7636L19.6329 77.9292L18.7904 84.1905L18.5088 90.4998L18.7904 96.8092L19.6329 103.07L21.03 109.236L22.971 115.259L25.4412 121.094L28.4218 126.696L31.89 132.022L35.8195 137.032L40.1804 141.688L44.9394 145.955L50.0604 149.799L55.5044 153.193L61.2299 156.109L67.1937 158.526L73.3497 160.425L79.6515 161.791L86.0513 162.616L92.5 162.891L98.9487 162.616L105.349 161.791L111.65 160.425L117.806 158.526L123.77 156.109L129.496 153.193L134.94 149.799L140.061 145.955L144.82 141.688L149.181 137.032L153.11 132.022L156.578 126.696L159.559 121.094L162.029 115.259L163.97 109.236L165.367 103.071L166.21 96.8091L166.491 90.4998L166.21 84.1906L165.367 77.9291L163.97 71.7636L162.029 65.7406L159.559 59.9058L156.578 54.3042L153.11 48.9778L149.181 43.9676L144.82 39.3114L140.061 35.0448L134.94 31.2003L129.496 27.807L123.77 24.891L117.806 22.4742L111.65 20.5751L105.348 19.2082L98.9488 18.3839L92.5 18.1085L86.0513 18.3839Z" fill="#E8DEF8"/>
</svg>
